<mxfile host="app.diagrams.net" agent="Mozilla/5.0 (Windows NT 10.0; Win64; x64) AppleWebKit/537.36 (KHTML, like Gecko) Chrome/127.0.0.0 Safari/537.36 Edg/127.0.0.0" version="24.7.6">
  <diagram id="YaoQWXKVeOTKrWk3H9-n" name="Pagina-2">
    <mxGraphModel dx="1386" dy="757" grid="1" gridSize="10" guides="1" tooltips="1" connect="1" arrows="1" fold="1" page="1" pageScale="1" pageWidth="827" pageHeight="1169" math="0" shadow="0">
      <root>
        <mxCell id="0" />
        <mxCell id="1" parent="0" />
        <mxCell id="7qxjw-tzkWbhI7lz4Nkl-2" value="&lt;font color=&quot;#ffffff&quot;&gt;&lt;span style=&quot;font-size: 16px;&quot;&gt;API_EEPROM_selectActiveModule()&lt;/span&gt;&lt;/font&gt;" style="shape=parallelogram;perimeter=parallelogramPerimeter;whiteSpace=wrap;html=1;fixedSize=1;fillColor=#365f91;" vertex="1" parent="1">
          <mxGeometry x="60" y="400" width="340" height="60" as="geometry" />
        </mxCell>
        <mxCell id="7qxjw-tzkWbhI7lz4Nkl-3" value="&lt;font color=&quot;#ffffff&quot;&gt;&lt;span style=&quot;font-size: 16px;&quot;&gt;API_EEPROM_initData()&lt;/span&gt;&lt;/font&gt;" style="shape=parallelogram;perimeter=parallelogramPerimeter;whiteSpace=wrap;html=1;fixedSize=1;fillColor=#365F91;" vertex="1" parent="1">
          <mxGeometry x="400" y="480" width="340" height="60" as="geometry" />
        </mxCell>
        <mxCell id="7qxjw-tzkWbhI7lz4Nkl-4" style="edgeStyle=orthogonalEdgeStyle;rounded=0;orthogonalLoop=1;jettySize=auto;html=1;exitX=0.5;exitY=1;exitDx=0;exitDy=0;entryX=0.5;entryY=0;entryDx=0;entryDy=0;strokeWidth=3;" edge="1" parent="1" source="7qxjw-tzkWbhI7lz4Nkl-5" target="7qxjw-tzkWbhI7lz4Nkl-2">
          <mxGeometry relative="1" as="geometry">
            <Array as="points">
              <mxPoint x="400" y="360" />
              <mxPoint x="230" y="360" />
            </Array>
          </mxGeometry>
        </mxCell>
        <mxCell id="dVsc5DqoKHijvtYgIY3m-1" style="edgeStyle=orthogonalEdgeStyle;rounded=0;orthogonalLoop=1;jettySize=auto;html=1;exitX=0.5;exitY=1;exitDx=0;exitDy=0;entryX=0.5;entryY=0;entryDx=0;entryDy=0;strokeWidth=3;" edge="1" parent="1" source="7qxjw-tzkWbhI7lz4Nkl-5" target="7qxjw-tzkWbhI7lz4Nkl-3">
          <mxGeometry relative="1" as="geometry">
            <Array as="points">
              <mxPoint x="400" y="360" />
              <mxPoint x="570" y="360" />
            </Array>
          </mxGeometry>
        </mxCell>
        <mxCell id="7qxjw-tzkWbhI7lz4Nkl-5" value="&lt;div style=&quot;&quot;&gt;&lt;span style=&quot;background-color: initial;&quot;&gt;&lt;font color=&quot;#ffffff&quot; style=&quot;font-size: 16px;&quot;&gt;API_EEPROM_init()&lt;/font&gt;&lt;/span&gt;&lt;/div&gt;" style="shape=parallelogram;perimeter=parallelogramPerimeter;whiteSpace=wrap;html=1;fixedSize=1;align=center;fillColor=#365F91;" vertex="1" parent="1">
          <mxGeometry x="230" y="260" width="340" height="60" as="geometry" />
        </mxCell>
        <mxCell id="7qxjw-tzkWbhI7lz4Nkl-6" style="edgeStyle=orthogonalEdgeStyle;rounded=0;orthogonalLoop=1;jettySize=auto;html=1;exitX=0.5;exitY=1;exitDx=0;exitDy=0;entryX=0.5;entryY=0;entryDx=0;entryDy=0;strokeWidth=3;" edge="1" parent="1" source="7qxjw-tzkWbhI7lz4Nkl-7" target="7qxjw-tzkWbhI7lz4Nkl-5">
          <mxGeometry relative="1" as="geometry" />
        </mxCell>
        <mxCell id="7qxjw-tzkWbhI7lz4Nkl-7" value="&lt;font color=&quot;#ffffff&quot; style=&quot;font-size: 16px;&quot;&gt;API_OS_Init()&lt;/font&gt;" style="rounded=0;whiteSpace=wrap;html=1;fillColor=#365F91;" vertex="1" parent="1">
          <mxGeometry x="230" y="160" width="340" height="60" as="geometry" />
        </mxCell>
      </root>
    </mxGraphModel>
  </diagram>
</mxfile>
